<svg width="115px" height="141px" viewBox="0 0 115 141" version="1.1" xmlns="http://www.w3.org/2000/svg" xmlns:xlink="http://www.w3.org/1999/xlink">
    <!-- Generator: Sketch 48.2 (47327) - http://www.bohemiancoding.com/sketch -->
    <desc>Created with Sketch.</desc>
    <defs></defs>
    <g id="Order-Page" stroke="none" stroke-width="1" fill="none" fill-rule="evenodd">
        <g id="Desktop-HD" transform="translate(-499.000000, -232.000000)" stroke="#1AB5FF" stroke-width="3">
            <g id="Dry-Clean" transform="translate(499.000000, 234.000000)">
                <path d="M1.5,137.304687 L112.628266,137.304687 L112.628266,49.4294471 C112.628266,46.751693 110.494239,43.7400547 107.942184,42.8431102 C107.88441,42.8216522 107.768621,42.7790553 107.597492,42.7167302 C107.310489,42.6122045 106.973481,42.4907678 106.589141,42.353831 C105.489004,41.9618625 104.231551,41.5247934 102.838192,41.0539119 C98.8554522,39.7079569 94.5851141,38.3618366 90.1990397,37.1058946 C85.5195095,35.7659224 80.9823339,34.6087219 76.6925504,33.6887696 C69.7554508,32.2010954 63.7316583,31.3907363 58.9070943,31.3907363 C53.6797048,31.3907363 47.0846897,32.2429984 39.4513314,33.8034733 C34.9707422,34.7194328 30.2361669,35.8584084 25.3522679,37.1700186 C20.6256442,38.4393912 16.0165475,39.7998501 11.7123644,41.1601667 C10.2064549,41.6361023 8.84662785,42.0778873 7.65623777,42.4741225 C7.24026279,42.6125847 6.87538087,42.7353918 6.56450913,42.8411194 C6.37898887,42.9042149 6.25330162,42.9473851 6.16190766,42.9787533 C3.63520516,43.7984998 1.5,46.7553375 1.5,49.4294471 L1.5,137.304687 Z" id="Rectangle-7"></path>
                <path d="M56.6861988,32.8791427 C56.6861988,32.8791427 67.9210347,18.5183546 67.8726702,10.0736572 C67.8243056,1.62895986 63.1521114,0.00702831547 56.6861991,0.00702831547 C50.2202869,0.00702831547 42.6916206,1.26817009 46.4776462,17.0736572" id="Path-12"></path>
            </g>
        </g>
    </g>
</svg>